<?xml version="1.0" encoding="utf-8"?>
<!-- Generator: Adobe Illustrator 27.5.0, SVG Export Plug-In . SVG Version: 6.00 Build 0)  -->
<svg version="1.1" id="Layer_1" xmlns="http://www.w3.org/2000/svg" xmlns:xlink="http://www.w3.org/1999/xlink" x="0px" y="0px"
	 viewBox="0 0 492 492" style="enable-background:new 0 0 492 492;" xml:space="preserve">
<circle style="fill:#24B9CC;" cx="246" cy="246" r="246"/>
<g>
	<path style="fill-rule:evenodd;clip-rule:evenodd;fill:#C4CED3;" d="M383.5,350.2c-2.7,2.7-6.4,4.4-10.6,4.4H155.4
		c-4.1,0-7.9-1.7-10.6-4.4c-2.7-2.7-4.4-6.4-4.4-10.6V197.7c0-4.1,1.7-7.9,4.4-10.6c2.7-2.7,6.4-4.4,10.6-4.4h217.5
		c4.1,0,7.9,1.7,10.6,4.4c2.7,2.7,4.4,6.4,4.4,10.6v141.9C387.9,343.7,386.2,347.5,383.5,350.2z"/>
	<path style="fill-rule:evenodd;clip-rule:evenodd;fill:#B0B9BE;" d="M140.4,246.9v-49.2c0-4.1,1.7-7.9,4.4-10.6
		c2.7-2.7,6.4-4.4,10.6-4.4h59.4c0.4,2.8,0.6,5.6,0.6,8.5c0,15.5-6.1,30.2-17,41.1c-10.9,10.9-25.7,17-41.1,17
		C151.5,249.4,145.8,248.5,140.4,246.9z"/>
	<path style="fill-rule:evenodd;clip-rule:evenodd;fill:#FFFFFF;" d="M372.9,348.4c2.4,0,4.6-1,6.2-2.6c1.6-1.6,2.6-3.8,2.6-6.2
		V197.7c0-2.4-1-4.6-2.6-6.2s-3.8-2.6-6.2-2.6H155.4c-2.4,0-4.6,1-6.2,2.6c-1.6,1.6-2.6,3.8-2.6,6.2v141.9c0,2.4,1,4.6,2.6,6.2
		c1.6,1.6,3.8,2.6,6.2,2.6H372.9z"/>
	<path style="fill-rule:evenodd;clip-rule:evenodd;fill:#E6E6E6;" d="M215.4,188.9h-60c-2.4,0-4.6,1-6.2,2.6
		c-1.6,1.6-2.6,3.8-2.6,6.2v50.7c3.5,0.6,7.1,1,10.7,1c15.5,0,30.2-6.1,41.1-17c10.9-10.9,17-25.7,17-41.1
		C215.4,190.4,215.4,189.6,215.4,188.9z"/>
	<path style="fill-rule:evenodd;clip-rule:evenodd;fill:#754C24;" d="M273.9,348.4h93.9l-48-68.4l17.6,25.1
		c-5.1,3.6-11.2,5.7-17.9,5.7c-9.8,0-18.5-4.5-24.2-11.5l19.8-19.6l-40,39.5c-1.2,1.2-1.2,3.1,0,4.3c0.1,0.1,0.2,0.2,0.3,0.2
		L273.9,348.4z"/>
	<path style="fill-rule:evenodd;clip-rule:evenodd;fill:#DDEDFC;" d="M337.3,305l-17.5-25l0,0c-0.1-0.1-0.2-0.3-0.3-0.4
		c-1.2-1.2-3.1-1.2-4.3,0l-19.8,19.6c5.7,7,14.4,11.5,24.2,11.5C326.1,310.7,332.3,308.6,337.3,305z"/>
	<path style="fill-rule:evenodd;clip-rule:evenodd;fill:#694420;" d="M273.9,348.4h30c0-1-0.3-2-0.9-2.9l-21.3-32.9l-6.6,6.5
		c-1.2,1.2-1.2,3.1,0,4.3c0.1,0.1,0.2,0.2,0.3,0.2L273.9,348.4z"/>
	<path style="fill-rule:evenodd;clip-rule:evenodd;fill:#FFC107;" d="M310.8,212c6.6,0,12.5,2.7,16.9,7c4.3,4.3,7,10.3,7,16.9
		c0,6.6-2.7,12.6-7,16.9c-4.3,4.3-10.3,7-16.9,7c-6.6,0-12.6-2.7-16.9-7c-4.3-4.3-7-10.3-7-16.9c0-6.6,2.7-12.6,7-16.9
		C298.3,214.7,304.2,212,310.8,212z"/>
	<path style="fill-rule:evenodd;clip-rule:evenodd;fill:#EF5350;" d="M194.6,153.9c10.3,10.3,15.5,23.8,15.5,37.3s-5.2,27-15.5,37.3
		c-10.3,10.3-23.8,15.5-37.3,15.5s-27-5.2-37.3-15.5l0,0c-10.3-10.3-15.5-23.8-15.5-37.3s5.2-27,15.5-37.3l0,0
		c10.3-10.3,23.8-15.5,37.3-15.5l0,0C170.8,138.4,184.3,143.6,194.6,153.9z"/>
	<path style="fill-rule:evenodd;clip-rule:evenodd;fill:#754C24;" d="M153.8,348.3c0.5,0.1,1,0.1,1.6,0.1h143l-50.2-77.5
		c-6.4,4.6-14.3,7.4-22.8,7.4c-8.1,0-15.7-2.5-21.9-6.8l20-30.9L153.8,348.3z"/>
	<path style="fill-rule:evenodd;clip-rule:evenodd;fill:#DDEDFC;" d="M248.3,270.9l-19.6-30.2c-0.2-0.4-0.5-0.7-0.9-1
		c-1.4-0.9-3.3-0.5-4.2,0.9l-20,30.9c6.3,4.3,13.8,6.8,21.9,6.8C234,278.3,241.9,275.6,248.3,270.9z"/>
	<g>
		<path style="fill-rule:evenodd;clip-rule:evenodd;fill:#B5D5F5;" d="M237.6,223.8h20.5c2.6,0,4.7,2.1,4.7,4.7l0,0
			c0,2.6-2.1,4.7-4.7,4.7h-20.5c-2.6,0-4.7-2.1-4.7-4.7l0,0C232.9,225.9,235.1,223.8,237.6,223.8z"/>
		<path style="fill-rule:evenodd;clip-rule:evenodd;fill:#B5D5F5;" d="M250.5,229.3H271c2.6,0,4.7,2.1,4.7,4.7l0,0
			c0,2.6-2.1,4.7-4.7,4.7h-20.5c-2.6,0-4.7-2.1-4.7-4.7l0,0C245.8,231.4,247.9,229.3,250.5,229.3z"/>
	</g>
	<g>
		<path style="fill-rule:evenodd;clip-rule:evenodd;fill:#B5D5F5;" d="M335.2,258.5h20.5c2.6,0,4.7,2.1,4.7,4.7l0,0
			c0,2.6-2.1,4.7-4.7,4.7h-20.5c-2.6,0-4.7-2.1-4.7-4.7l0,0C330.5,260.6,332.6,258.5,335.2,258.5z"/>
		<path style="fill-rule:evenodd;clip-rule:evenodd;fill:#B5D5F5;" d="M348.1,264h20.5c2.6,0,4.7,2.1,4.7,4.7l0,0
			c0,2.6-2.1,4.7-4.7,4.7h-20.5c-2.6,0-4.7-2.1-4.7-4.7l0,0C343.4,266.1,345.5,264,348.1,264z"/>
	</g>
	<g>
		<path style="fill-rule:evenodd;clip-rule:evenodd;fill:#B5D5F5;" d="M316.1,218.6h20.5c2.6,0,4.7,2.1,4.7,4.7l0,0
			c0,2.6-2.1,4.7-4.7,4.7h-20.5c-2.6,0-4.7-2.1-4.7-4.7l0,0C311.4,220.7,313.5,218.6,316.1,218.6z"/>
		<path style="fill-rule:evenodd;clip-rule:evenodd;fill:#B5D5F5;" d="M329,224.2h20.5c2.6,0,4.7,2.1,4.7,4.7l0,0
			c0,2.6-2.1,4.7-4.7,4.7H329c-2.6,0-4.7-2.1-4.7-4.7l0,0C324.3,226.3,326.4,224.2,329,224.2z"/>
	</g>
	<g>
		<path style="fill-rule:evenodd;clip-rule:evenodd;fill:#B5D5F5;" d="M163.5,250.3H184c2.6,0,4.7,2.1,4.7,4.7l0,0
			c0,2.6-2.1,4.7-4.7,4.7h-20.5c-2.6,0-4.7-2.1-4.7-4.7l0,0C158.8,252.4,160.9,250.3,163.5,250.3z"/>
		<path style="fill-rule:evenodd;clip-rule:evenodd;fill:#B5D5F5;" d="M176.4,255.8h20.5c2.6,0,4.7,2.1,4.7,4.7l0,0
			c0,2.6-2.1,4.7-4.7,4.7h-20.5c-2.6,0-4.7-2.1-4.7-4.7l0,0C171.7,257.9,173.8,255.8,176.4,255.8z"/>
	</g>
	<path style="fill:#FFFFFF;" d="M199.1,191.2c0-10.7-4.1-21.4-12.3-29.6c-8.2-8.2-18.9-12.3-29.6-12.3l0,0
		c-10.7,0-21.4,4.1-29.6,12.3l0,0c-8.2,8.2-12.3,18.9-12.3,29.6s4.1,21.4,12.3,29.6l0,0c8.2,8.2,18.9,12.3,29.6,12.3
		s21.4-4.1,29.6-12.3S199.1,201.9,199.1,191.2z"/>
	<path style="fill-rule:evenodd;clip-rule:evenodd;fill:#EF5350;" d="M190.2,153.9c1.2-1.2,3.2-1.2,4.4,0c1.2,1.2,1.2,3.2,0,4.4
		l-70.3,70.3c-1.2,1.2-3.2,1.2-4.4,0c-1.2-1.2-1.2-3.2,0-4.4L190.2,153.9z"/>
</g>
</svg>
